<svg xmlns="http://www.w3.org/2000/svg" version="1.1" xmlns:xlink="http://www.w3.org/1999/xlink" xmlns:svgjs="http://svgjs.com/svgjs" width="1650" height="400" preserveAspectRatio="none" viewBox="0 0 1650 400"><g mask="url(&quot;#SvgjsMask1536&quot;)" fill="none"><rect width="1650" height="400" x="0" y="0" fill="url(#SvgjsLinearGradient1537)"></rect><path d="M1650 0L1008.02 0L1650 14.51z" fill="rgba(255, 255, 255, .1)"></path><path d="M1008.02 0L1650 14.51L1650 92.89L968.16 0z" fill="rgba(255, 255, 255, .075)"></path><path d="M968.16 0L1650 92.89L1650 228.51999999999998L383.13 0z" fill="rgba(255, 255, 255, .05)"></path><path d="M383.1300000000001 0L1650 228.51999999999998L1650 275.4L213.2300000000001 0z" fill="rgba(255, 255, 255, .025)"></path><path d="M0 400L795.93 400L0 349.87z" fill="rgba(0, 0, 0, .1)"></path><path d="M0 349.87L795.93 400L866.79 400L0 297.57z" fill="rgba(0, 0, 0, .075)"></path><path d="M0 297.57L866.79 400L1282.6 400L0 138.57999999999998z" fill="rgba(0, 0, 0, .05)"></path><path d="M0 138.57999999999998L1282.6 400L1305.51 400L0 73.20999999999998z" fill="rgba(0, 0, 0, .025)"></path></g><defs><mask id="SvgjsMask1536"><rect width="1650" height="400" fill="#ffffff"></rect></mask><linearGradient x1="0%" y1="50%" x2="100%" y2="50%" gradientUnits="userSpaceOnUse" id="SvgjsLinearGradient1537"><stop stop-color="rgba(255, 239, 130, 1)" offset="0.12"></stop><stop stop-color="rgba(236, 156, 4, 1)" offset="1"></stop></linearGradient></defs></svg>